<svg width="1600" height="1200" viewBox="0 0 1600 1200" xmlns="http://www.w3.org/2000/svg">
    <rect width="1600" height="1200" fill="#F2EEE3"/>
    
    <text x="800" y="170" text-anchor="middle" font-family="Segoe UI, Arial, sans-serif" font-size="70" font-weight="700" fill="#2B3327">One shop, the whole money journey</text>
    <text x="800" y="236" text-anchor="middle" font-family="Segoe UI, Arial, sans-serif" font-size="34" fill="#6E7A66">Every tool you need, in one calm, consistent system.</text>
    <g>
      <rect x="130" y="320" width="420" height="180" rx="22" fill="#FBFAF5" stroke="#A9B89E" stroke-width="2"/>
      <circle cx="200" cy="410" r="34" fill="#5A6E52" opacity="0.14"/>
      <circle cx="200" cy="410" r="10" fill="#5A6E52"/>
      <text x="260" y="421" font-family="Segoe UI, Arial, sans-serif" font-size="34" font-weight="600" fill="#2B3327">Budgeting</text>
    </g><g>
      <rect x="590" y="320" width="420" height="180" rx="22" fill="#FBFAF5" stroke="#A9B89E" stroke-width="2"/>
      <circle cx="660" cy="410" r="34" fill="#5A6E52" opacity="0.14"/>
      <circle cx="660" cy="410" r="10" fill="#5A6E52"/>
      <text x="720" y="421" font-family="Segoe UI, Arial, sans-serif" font-size="34" font-weight="600" fill="#2B3327">Debt Payoff</text>
    </g><g>
      <rect x="1050" y="320" width="420" height="180" rx="22" fill="#FBFAF5" stroke="#A9B89E" stroke-width="2"/>
      <circle cx="1120" cy="410" r="34" fill="#5A6E52" opacity="0.14"/>
      <circle cx="1120" cy="410" r="10" fill="#5A6E52"/>
      <text x="1180" y="421" font-family="Segoe UI, Arial, sans-serif" font-size="34" font-weight="600" fill="#2B3327">Sinking Funds</text>
    </g><g>
      <rect x="130" y="536" width="420" height="180" rx="22" fill="#FBFAF5" stroke="#A9B89E" stroke-width="2"/>
      <circle cx="200" cy="626" r="34" fill="#5A6E52" opacity="0.14"/>
      <circle cx="200" cy="626" r="10" fill="#5A6E52"/>
      <text x="260" y="637" font-family="Segoe UI, Arial, sans-serif" font-size="34" font-weight="600" fill="#2B3327">Net Worth</text>
    </g><g>
      <rect x="590" y="536" width="420" height="180" rx="22" fill="#FBFAF5" stroke="#A9B89E" stroke-width="2"/>
      <circle cx="660" cy="626" r="34" fill="#5A6E52" opacity="0.14"/>
      <circle cx="660" cy="626" r="10" fill="#5A6E52"/>
      <text x="720" y="637" font-family="Segoe UI, Arial, sans-serif" font-size="34" font-weight="600" fill="#2B3327">Investments</text>
    </g><g>
      <rect x="1050" y="536" width="420" height="180" rx="22" fill="#FBFAF5" stroke="#A9B89E" stroke-width="2"/>
      <circle cx="1120" cy="626" r="34" fill="#5A6E52" opacity="0.14"/>
      <circle cx="1120" cy="626" r="10" fill="#5A6E52"/>
      <text x="1180" y="637" font-family="Segoe UI, Arial, sans-serif" font-size="34" font-weight="600" fill="#2B3327">Family &amp; Education</text>
    </g><g>
      <rect x="130" y="752" width="420" height="180" rx="22" fill="#FBFAF5" stroke="#A9B89E" stroke-width="2"/>
      <circle cx="200" cy="842" r="34" fill="#5A6E52" opacity="0.14"/>
      <circle cx="200" cy="842" r="10" fill="#5A6E52"/>
      <text x="260" y="853" font-family="Segoe UI, Arial, sans-serif" font-size="34" font-weight="600" fill="#2B3327">Zakat</text>
    </g><g>
      <rect x="590" y="752" width="420" height="180" rx="22" fill="#FBFAF5" stroke="#A9B89E" stroke-width="2"/>
      <circle cx="660" cy="842" r="34" fill="#5A6E52" opacity="0.14"/>
      <circle cx="660" cy="842" r="10" fill="#5A6E52"/>
      <text x="720" y="853" font-family="Segoe UI, Arial, sans-serif" font-size="34" font-weight="600" fill="#2B3327">Weddings</text>
    </g><g>
      <rect x="1050" y="752" width="420" height="180" rx="22" fill="#FBFAF5" stroke="#A9B89E" stroke-width="2"/>
      <circle cx="1120" cy="842" r="34" fill="#5A6E52" opacity="0.14"/>
      <circle cx="1120" cy="842" r="10" fill="#5A6E52"/>
      <text x="1180" y="853" font-family="Segoe UI, Arial, sans-serif" font-size="34" font-weight="600" fill="#2B3327">Small Business</text>
    </g>
    <g transform="translate(110,1120) scale(0.7)">
    <circle cx="0" cy="0" r="50" fill="#5A6E52"/>
    <g fill="#F2EEE3">
      <rect x="-22" y="-2" width="9" height="24" rx="3"/>
      <rect x="-8" y="-12" width="9" height="34" rx="3"/>
      <rect x="6" y="-22" width="9" height="44" rx="3"/>
    </g>
    <path d="M14 -22 C 24 -30, 25 -42, 17 -47 C 11 -39, 8 -30, 14 -22 Z" fill="#A9B89E"/>
  </g>
    <text x="155" y="1130" font-family="Segoe UI, Arial, sans-serif" font-size="34" font-weight="600" fill="#2B3327">Lime Studios</text>
    <text x="1510" y="1130" text-anchor="end" font-family="Segoe UI, Arial, sans-serif" font-size="28" fill="#6E7A66">limestudiosco.etsy.com</text>
  </svg>